# xmcd
#
# Track frame offsets:
#	180
#	39619
#	55218
#	73434
#	87538
#	107042
#	126449
#	146996
#	160451
#	177745
#	191043
#	203380
#	222188
#	247082
#	263046
#
# Disc length: 3706 seconds
#
# Revision: 2
# Processed by: cddbd v1.5.1PL2 Copyright (c) Steve Scherf et al.
# Submitted via: audiograbber 1.83.01
#
DISCID=f70e780f
DTITLE=Sound Choice - SC8106
DYEAR=1900
DGENRE=Karaoke Pop
TTITLE0=Meat Loaf - Paradise By The Dashboard Light
TTITLE1=Stray Cats - Stray Cat Strut
TTITLE2=Sister Sledge  - We Are Family
TTITLE3=Traditional - Rocky Top
TTITLE4=Day, Otis And Isley Brothers - Shout
TTITLE5=Buffett, Jimmy - Margaritaville
TTITLE6=Madonna - Into The Groove
TTITLE7=Brown, James - I Got You (I Feel Good)
TTITLE8=Seger, Bob - Old Time Rock 'N' Roll
TTITLE9=Grand Funk - The Loco-Motion
TTITLE10=Checker, Chubby - The Twist
TTITLE11=Halen, Van - Jump
TTITLE12=B 52'S - Love Shack
TTITLE13=Steppenwolf - Born To Be Wild
TTITLE14=Romantics - What I Like About You
EXTD=
EXTT0=Meat Loaf
EXTT1=Stray Cats
EXTT2=Sister Sledge
EXTT3=Traditional
EXTT4=Oyis Day and The Knights
EXTT5=Jimmy Buffett
EXTT6=Madonna
EXTT7=James Brown
EXTT8=Bob Seger
EXTT9=Grand Funk
EXTT10=Chubby Checker
EXTT11=Van Halen
EXTT12=B-52's
EXTT13=Steppenwolf
EXTT14=The Romantics
PLAYORDER=
